# xmcd
#
# Track frame offsets: 
#        182
#        10005
#        22955
#        42790
#        55542
#        67520
#        78630
#        94532
#        105652
#        116507
#        127310
#        137607
#
# Disc length: 2059 seconds
#
# Revision: 4
# Processed by: cddbd v1.4PL0 Copyright (c) Steve Scherf et al.
# Submitted via: ExactAudioCopy v0.90b3
#
DISCID=8a08090c
DTITLE=Junior Brown - 12 Shades Of Brown
DYEAR=1993
DGENRE=Country
TTITLE0=My Baby Don't Dance To Nothing But Ernest Tubb
TTITLE1=Baby Let The Bad Times Be
TTITLE2=Freeborn Man
TTITLE3=They Don't Choose To Live That Way
TTITLE4=Too Many Nights In A Roadhouse
TTITLE5=Hillbilly Hula Gal
TTITLE6=A Way To Survive
TTITLE7=Broke Down South Of Dallas
TTITLE8=What's Left Just Won't Go Right
TTITLE9=Moan All Night Long
TTITLE10=Coconut Island
TTITLE11=Don't Sell The Farm
EXTD=
EXTT0=
EXTT1=
EXTT2=
EXTT3=
EXTT4=
EXTT5=
EXTT6=
EXTT7=
EXTT8=
EXTT9=
EXTT10=
EXTT11=
PLAYORDER=
